# xmcd
#
# Track frame offsets: 
#        150
#        18455
#        34168
#        52403
#        66554
#        86955
#        108439
#        129422
#        141678
#        166498
#        182452
#        206351
#
# Disc length: 2813 seconds
#
# Revision: 0
# Processed by: cddbd v1.5.2PL0 Copyright (c) Steve Scherf et al.
# Submitted via: ExactAudioCopy v0.95b3
#
DISCID=b90afb0c
DTITLE=John Lennon  - Walls And Bridges Quadraphonic Mixdown to Stereo
DTITLE=FLAC
DYEAR=1900
DGENRE=
TTITLE0=Going Down On Love
TTITLE1=Whatever Gets You Thru The Night
TTITLE2=Old Dirt Road
TTITLE3=What You Got
TTITLE4=Bless You
TTITLE5=Scared
TTITLE6=Number 9 Dream
TTITLE7=Surprise Surprise (Sweet Bird Of Paradox)
TTITLE8=Steel And Glass
TTITLE9=Beef Jerky
TTITLE10=Nobody Loves You (When Youre Down And Out)
TTITLE11=Ya Ya
EXTD=
EXTT0=
EXTT1=
EXTT2=
EXTT3=
EXTT4=
EXTT5=
EXTT6=
EXTT7=
EXTT8=
EXTT9=
EXTT10=
EXTT11=
PLAYORDER=
